<svg xmlns="http://www.w3.org/2000/svg" xmlns:xlink="http://www.w3.org/1999/xlink" viewBox="0 0 740.22 1040.57"><defs><style>.cls-1{fill:none;}.cls-2{clip-path:url(#clip-path);}.cls-3{fill:url(#未命名的渐变_21);}.cls-4{clip-path:url(#clip-path-2);}.cls-5{fill:url(#未命名的渐变_21-2);}.cls-6{clip-path:url(#clip-path-3);}.cls-7{fill:url(#未命名的渐变_21-3);}.cls-8{clip-path:url(#clip-path-4);}.cls-9{fill:url(#未命名的渐变_21-4);}.cls-10{clip-path:url(#clip-path-5);}.cls-11{fill:url(#未命名的渐变_21-5);}.cls-12{clip-path:url(#clip-path-6);}.cls-13{fill:url(#未命名的渐变_21-6);}.cls-14{clip-path:url(#clip-path-7);}.cls-15{fill:url(#未命名的渐变_25);}.cls-16{clip-path:url(#clip-path-8);}.cls-17{fill:url(#未命名的渐变_25-2);}.cls-18{clip-path:url(#clip-path-9);}.cls-19{fill:url(#未命名的渐变_25-3);}.cls-20{clip-path:url(#clip-path-10);}.cls-21{fill:url(#未命名的渐变_25-4);}.cls-22{clip-path:url(#clip-path-11);}.cls-23{fill:url(#未命名的渐变_25-5);}.cls-24{clip-path:url(#clip-path-12);}.cls-25{fill:url(#未命名的渐变_18);}.cls-26{clip-path:url(#clip-path-13);}.cls-27{fill:url(#未命名的渐变_19);}.cls-28{clip-path:url(#clip-path-14);}.cls-29{fill:url(#未命名的渐变_21-7);}.cls-30{clip-path:url(#clip-path-15);}.cls-31{fill:url(#未命名的渐变_21-8);}.cls-32{fill:url(#未命名的渐变_22);}.cls-33{clip-path:url(#clip-path-17);}.cls-34{fill:url(#未命名的渐变_25-6);}.cls-35{clip-path:url(#clip-path-18);}.cls-36{fill:url(#未命名的渐变_18-2);}.cls-37{clip-path:url(#clip-path-19);}.cls-38{fill:url(#未命名的渐变_19-2);}.cls-39{clip-path:url(#clip-path-20);}.cls-40{fill:url(#未命名的渐变_21-9);}.cls-41{clip-path:url(#clip-path-21);}.cls-42{fill:url(#未命名的渐变_21-10);}.cls-43{fill:url(#未命名的渐变_22-2);}.cls-44{clip-path:url(#clip-path-23);}.cls-45{fill:url(#未命名的渐变_25-7);}.cls-46{clip-path:url(#clip-path-24);}.cls-47{fill:url(#未命名的渐变_25-8);}.cls-48{clip-path:url(#clip-path-25);}.cls-49{fill:url(#未命名的渐变_25-9);}</style><clipPath id="clip-path"><polygon class="cls-1" points="42.27 834.85 74.35 834.85 74.35 913.1 124.42 913.1 124.42 938.66 42.27 938.66 42.27 834.85"/></clipPath><linearGradient id="未命名的渐变_21" x1="-8.31" y1="1136.45" x2="-7.31" y2="1136.45" gradientTransform="matrix(0, 134.97, 134.97, 0, -153305.65, 1936.46)" gradientUnits="userSpaceOnUse"><stop offset="0" stop-color="#0b5ca3"/><stop offset="1" stop-color="#1a2c79"/></linearGradient><clipPath id="clip-path-2"><path class="cls-1" d="M202.81,921.52h-36.4l-5.06,17.14H128.58l39-103.81h35l39,103.81H208Zm-6.64-22.44-11.45-37.32-11.36,37.32Z"/></clipPath><linearGradient id="未命名的渐变_21-2" x1="-8.31" y1="1136.45" x2="-7.31" y2="1136.45" gradientTransform="matrix(0, 134.97, 134.97, 0, -153203.91, 1936.46)" xlink:href="#未命名的渐变_21"/><clipPath id="clip-path-3"><path class="cls-1" d="M314.41,834.85v63.32q0,8.64-4.7,13.34c-3.15,3.15-7.49,4.71-13,4.71s-9.94-1.59-13.07-4.78-4.71-7.61-4.71-13.27V834.85h-32V896.7a61.78,61.78,0,0,0,3,17.56,32.86,32.86,0,0,0,6.82,12,37.5,37.5,0,0,0,11,8.95,43.35,43.35,0,0,0,15,4.21,140.2,140.2,0,0,0,16.52,1.06q13.1,0,22.45-3.46a35.83,35.83,0,0,0,12.85-8.61,37.47,37.47,0,0,0,9-14.28,52.21,52.21,0,0,0,2.88-17.38V834.85Z"/></clipPath><linearGradient id="未命名的渐变_21-3" x1="-8.31" y1="1136.45" x2="-7.31" y2="1136.45" gradientTransform="matrix(0, 134.97, 134.97, 0, -153095.6, 1936.49)" xlink:href="#未命名的渐变_21"/><clipPath id="clip-path-4"><polygon class="cls-1" points="436.91 834.85 436.91 892.28 397.83 834.85 367.87 834.85 367.87 938.66 398.05 938.66 398.05 881.66 436.91 938.66 467.14 938.66 467.14 834.85 436.91 834.85"/></clipPath><linearGradient id="未命名的渐变_21-4" x1="-8.31" y1="1136.45" x2="-7.31" y2="1136.45" gradientTransform="matrix(0, 134.97, 134.97, 0, -152971.49, 1936.46)" xlink:href="#未命名的渐变_21"/><clipPath id="clip-path-5"><path class="cls-1" d="M498.42,846.91q-13.71,13.83-13.72,39.6,0,19.31,7.79,31.71T511,935.52q10.74,4.92,27.65,4.91,14,0,23-4a38.57,38.57,0,0,0,15.12-12,51.55,51.55,0,0,0,8.92-19.76l-28.1-8.5q-2.12,9.84-6.84,15c-3.13,3.44-7.78,5.16-13.91,5.16q-9.5,0-14.73-6.39t-5.23-23.67q0-13.92,4.38-20.43Q527,857.1,538,857.09a19,19,0,0,1,8.7,2,18.47,18.47,0,0,1,6.58,5.66,24.46,24.46,0,0,1,3.12,6.95l28.32-6.31Q579.26,849,568,841t-30.82-7.93q-25.08,0-38.77,13.84"/></clipPath><linearGradient id="未命名的渐变_21-5" x1="-8.31" y1="1136.45" x2="-7.31" y2="1136.45" gradientTransform="matrix(0, 134.98, 134.98, 0, -152863.57, 1936.53)" xlink:href="#未命名的渐变_21"/><clipPath id="clip-path-6"><polygon class="cls-1" points="668.54 834.85 668.54 871.18 633.49 871.18 633.49 834.85 601.42 834.85 601.42 938.66 633.49 938.66 633.49 896.67 668.54 896.67 668.54 938.66 700.77 938.66 700.77 834.85 668.54 834.85"/></clipPath><linearGradient id="未命名的渐变_21-6" x1="-8.31" y1="1136.45" x2="-7.31" y2="1136.45" gradientTransform="matrix(0, 134.97, 134.97, 0, -152737.9, 1936.46)" xlink:href="#未命名的渐变_21"/><clipPath id="clip-path-7"><path class="cls-1" d="M269.16,986H292.7v2.87a4.88,4.88,0,0,1-.84,2.63,2.94,2.94,0,0,1-2.27,1.07H269.16Zm0-16.13H292.7v6.09H269.16Zm-2-15.53,2.41,5.49H252.08v80.78h55.68l-5.86-30.12H286.61l3,15.88-20.43-.07v-23.81h26.53a9.61,9.61,0,0,0,4.31-1.08,10.88,10.88,0,0,0,3.59-2.51,9.16,9.16,0,0,0,2.25-3.94,12.93,12.93,0,0,0,.72-2.33,12.51,12.51,0,0,0,.23-2.45V959.79h-19l-2.51-5.49Z"/></clipPath><linearGradient id="未命名的渐变_25" x1="-8.32" y1="1136.52" x2="-7.32" y2="1136.52" gradientTransform="matrix(0, 137.29, 137.29, 0, -155751.01, 2077.47)" gradientUnits="userSpaceOnUse"><stop offset="0" stop-color="#89c7ca"/><stop offset="1" stop-color="#1aa6a9"/></linearGradient><clipPath id="clip-path-8"><path class="cls-1" d="M325,989.91h16.61v12.18H325Zm0-25.57h12.75a3.57,3.57,0,0,1,2.71,1.2,3.92,3.92,0,0,1,1.15,2.86v9.68H325Zm-14.46-10v86.27H325v-27h16.61V1028a3.36,3.36,0,0,1-1,2.5,3.75,3.75,0,0,1-2.75,1.19h-.25l-4.69,8.85h11.74a10.87,10.87,0,0,0,2.26-.24,20.51,20.51,0,0,0,2.17-.6,12.66,12.66,0,0,0,3.6-2.51,12.07,12.07,0,0,0,2.51-3.46,16.15,16.15,0,0,0,.6-2.09,11.87,11.87,0,0,0,.24-2.46v-67a7.69,7.69,0,0,0-2.28-5.56,7.46,7.46,0,0,0-5.52-2.32Z"/></clipPath><linearGradient id="未命名的渐变_25-2" x1="-8.32" y1="1136.52" x2="-7.32" y2="1136.52" gradientTransform="matrix(0, 137.29, 137.29, 0, -155697.67, 2077.47)" xlink:href="#未命名的渐变_25"/><clipPath id="clip-path-9"><rect class="cls-1" x="388.51" y="1011.41" width="31.92" height="11.83"/></clipPath><linearGradient id="未命名的渐变_25-3" x1="-8.32" y1="1136.52" x2="-7.32" y2="1136.52" gradientTransform="matrix(0, 137.25, 137.25, 0, -155587.49, 2077.2)" xlink:href="#未命名的渐变_25"/><clipPath id="clip-path-10"><path class="cls-1" d="M390.52,954.54v11.82h27.87a2.29,2.29,0,0,1,1.86,1.09,4.39,4.39,0,0,1,.77,2.62v19.84H408.59l4.06-18.65H400.23l-6.82,30.47H424v23.66a4.2,4.2,0,0,1-.85,2.64,2.42,2.42,0,0,1-1.9,1.07H397.12l-2.73,10.28h32a7,7,0,0,0,3.63-1,10.25,10.25,0,0,0,3.05-2.81,13.63,13.63,0,0,0,2-4.19,18,18,0,0,0,.72-5.14V989.91H433V967.68a17,17,0,0,0-.76-5.13,15.85,15.85,0,0,0-2-4.19,9.63,9.63,0,0,0-3-2.81,7.18,7.18,0,0,0-3.65-1Z"/></clipPath><linearGradient id="未命名的渐变_25-4" x1="-8.32" y1="1136.52" x2="-7.32" y2="1136.52" gradientTransform="matrix(0, 137.29, 137.29, 0, -155621.53, 2077.5)" xlink:href="#未命名的渐变_25"/><clipPath id="clip-path-11"><path class="cls-1" d="M461.77,956v12.78l-6.69.84v-9.09H442.66V971l-6.11.71v11.83l6.11-.72v44.93a12.21,12.21,0,0,0,.94,4.79,12.57,12.57,0,0,0,2.68,4,12.29,12.29,0,0,0,4,2.69,12.14,12.14,0,0,0,4.78,1h37.39l4.43-11.82h-38a3.72,3.72,0,0,1-2.77-1.08,3.58,3.58,0,0,1-1.06-2.62V981.42l6.69-.83v40.61h12.54V979.15l9.91-1.19v28.8a2.54,2.54,0,0,1-.76,1.85,2.58,2.58,0,0,1-1.87.77h-.95L478,1021.2h5.48a13.09,13.09,0,0,0,5.14-1,12.89,12.89,0,0,0,7-7,12.73,12.73,0,0,0,1-5.13V964.69l-22.33,2.63V956Z"/></clipPath><linearGradient id="未命名的渐变_25-5" x1="-8.32" y1="1136.52" x2="-7.32" y2="1136.52" gradientTransform="matrix(0, 137.28, 137.28, 0, -155551.83, 2077.38)" xlink:href="#未命名的渐变_25"/><clipPath id="clip-path-12"><polygon class="cls-1" points="106.41 557.91 356.39 702.24 356.39 565.06 225.21 489.32 225.21 337.85 106.41 269.25 106.41 557.91"/></clipPath><linearGradient id="未命名的渐变_18" x1="-8.59" y1="1142.47" x2="-7.59" y2="1142.47" gradientTransform="matrix(0, -329.77, -329.77, 0, 376990.85, -2162.24)" gradientUnits="userSpaceOnUse"><stop offset="0" stop-color="#1e95d4"/><stop offset="0.03" stop-color="#1e95d4"/><stop offset="1" stop-color="#084a95"/></linearGradient><clipPath id="clip-path-13"><polygon class="cls-1" points="225.21 337.85 225.21 382.68 356.39 306.94 356.39 262.11 225.21 337.85"/></clipPath><linearGradient id="未命名的渐变_19" x1="-5.26" y1="1148.06" x2="-4.26" y2="1148.06" gradientTransform="matrix(0, -71.92, -71.92, 0, 82864.25, -38.09)" gradientUnits="userSpaceOnUse"><stop offset="0" stop-color="#89c7ca"/><stop offset="0.26" stop-color="#89c7ca"/><stop offset="1" stop-color="#1aa6a9"/></linearGradient><clipPath id="clip-path-14"><polygon class="cls-1" points="225.21 489.32 262.32 510.73 262.32 427.62 262.32 360.91 225.21 337.85 225.21 489.32"/></clipPath><linearGradient id="未命名的渐变_21-7" x1="-8.71" y1="1145.11" x2="-7.71" y2="1145.11" gradientTransform="matrix(0, -131.67, -131.67, 0, 151019.47, -648.98)" xlink:href="#未命名的渐变_21"/><clipPath id="clip-path-15"><polygon class="cls-1" points="225.21 489.32 356.39 565.02 356.39 517.26 262.32 464.11 225.21 489.32"/></clipPath><linearGradient id="未命名的渐变_21-8" x1="-4.41" y1="1140.84" x2="-3.41" y2="1140.84" gradientTransform="matrix(-140.69, 0, 0, 140.69, -243.77, -159988.42)" xlink:href="#未命名的渐变_21"/><linearGradient id="未命名的渐变_22" x1="-10.44" y1="1140.63" x2="-9.44" y2="1140.63" gradientTransform="matrix(0, 299.21, 299.21, 0, -341059.61, 3416.83)" gradientUnits="userSpaceOnUse"><stop offset="0" stop-color="#60bbe4"/><stop offset="0.03" stop-color="#60bbe4"/><stop offset="1" stop-color="#084a95"/></linearGradient><clipPath id="clip-path-17"><polygon class="cls-1" points="106.41 269.25 225.21 337.85 356.39 262.11 356.39 124.93 106.41 269.25"/></clipPath><linearGradient id="未命名的渐变_25-6" x1="-10.91" y1="1138.03" x2="-9.91" y2="1138.03" gradientTransform="matrix(0, 164.84, 164.84, 0, -187365.09, 2004.73)" xlink:href="#未命名的渐变_25"/><clipPath id="clip-path-18"><polygon class="cls-1" points="383.83 359.27 515.01 435.01 515.01 586.48 633.82 655.07 633.82 366.42 383.83 222.09 383.83 359.27"/></clipPath><linearGradient id="未命名的渐变_18-2" x1="-8.43" y1="1138.98" x2="-7.43" y2="1138.98" gradientTransform="matrix(0, 329.77, 329.77, 0, -375091.03, 3033.23)" xlink:href="#未命名的渐变_18"/><clipPath id="clip-path-19"><polygon class="cls-1" points="383.83 617.39 383.83 662.22 515.01 586.48 515.01 541.65 383.83 617.39"/></clipPath><linearGradient id="未命名的渐变_19-2" x1="-11.57" y1="1134.41" x2="-10.57" y2="1134.41" gradientTransform="matrix(0, 82.25, 82.25, 0, -92851.05, 1527.31)" xlink:href="#未命名的渐变_19"/><clipPath id="clip-path-20"><polygon class="cls-1" points="477.91 496.72 477.91 563.43 515.01 586.48 515.01 435.01 477.91 413.59 477.91 496.72"/></clipPath><linearGradient id="未命名的渐变_21-9" x1="-8.31" y1="1136.35" x2="-7.31" y2="1136.35" gradientTransform="matrix(0, 131.68, 131.68, 0, -149131.95, 1520.06)" xlink:href="#未命名的渐变_21"/><clipPath id="clip-path-21"><polygon class="cls-1" points="383.83 407.07 477.91 460.21 515.01 435.01 383.83 359.3 383.83 407.07"/></clipPath><linearGradient id="未命名的渐变_21-10" x1="-12.61" y1="1140.6" x2="-11.61" y2="1140.6" gradientTransform="matrix(140.69, 0, 0, -140.69, 2138.15, 160879.14)" xlink:href="#未命名的渐变_21"/><linearGradient id="未命名的渐变_22-2" x1="-6.58" y1="1140.82" x2="-5.58" y2="1140.82" gradientTransform="matrix(0, -299.21, -299.21, 0, 341856.79, -1339.29)" xlink:href="#未命名的渐变_22"/><clipPath id="clip-path-23"><polygon class="cls-1" points="383.83 662.22 383.83 799.4 633.82 655.07 515.01 586.48 383.83 662.22"/></clipPath><linearGradient id="未命名的渐变_25-7" x1="-6.11" y1="1143.13" x2="-5.11" y2="1143.13" gradientTransform="matrix(0, -164.84, -164.84, 0, 188944.6, -288.49)" xlink:href="#未命名的渐变_25"/><clipPath id="clip-path-24"><rect class="cls-1" x="42.27" y="991.38" width="158.89" height="7.84"/></clipPath><linearGradient id="未命名的渐变_25-8" x1="-8.32" y1="1136.53" x2="-7.32" y2="1136.53" gradientTransform="matrix(0, 137.33, 137.33, 0, -155951.95, 2077.77)" xlink:href="#未命名的渐变_25"/><clipPath id="clip-path-25"><rect class="cls-1" x="541.87" y="991.38" width="158.9" height="7.84"/></clipPath><linearGradient id="未命名的渐变_25-9" x1="-8.32" y1="1136.53" x2="-7.32" y2="1136.53" gradientTransform="matrix(0, 137.33, 137.33, 0, -155452.34, 2077.77)" xlink:href="#未命名的渐变_25"/></defs><title>资源 1</title><g id="图层_2" data-name="图层 2"><g id="图层_1-2" data-name="图层 1"><g class="cls-2"><rect class="cls-3" x="42.27" y="834.85" width="82.15" height="103.81"/></g><g class="cls-4"><rect class="cls-5" x="128.58" y="834.85" width="113.03" height="103.81"/></g><g class="cls-6"><rect class="cls-7" x="246.93" y="834.85" width="99.49" height="105.58"/></g><g class="cls-8"><rect class="cls-9" x="367.87" y="834.85" width="99.27" height="103.81"/></g><g class="cls-10"><rect class="cls-11" x="484.7" y="833.07" width="100.98" height="107.36"/></g><g class="cls-12"><rect class="cls-13" x="601.42" y="834.85" width="99.35" height="103.81"/></g><g class="cls-14"><rect class="cls-15" x="252.08" y="954.3" width="55.68" height="86.28"/></g><g class="cls-16"><rect class="cls-17" x="310.5" y="954.3" width="45.54" height="86.28"/></g><g class="cls-18"><rect class="cls-19" x="388.51" y="1011.41" width="31.92" height="11.83"/></g><g class="cls-20"><rect class="cls-21" x="390.52" y="954.54" width="45.32" height="84.84"/></g><g class="cls-22"><rect class="cls-23" x="436.55" y="955.98" width="60.35" height="84.23"/></g><g class="cls-24"><rect class="cls-25" x="106.41" y="269.25" width="249.99" height="432.99"/></g><g class="cls-26"><rect class="cls-27" x="205.17" y="239.14" width="171.26" height="166.51" transform="translate(-113.48 164.09) rotate(-26.57)"/></g><g class="cls-28"><rect class="cls-29" x="225.21" y="337.85" width="37.11" height="172.88"/></g><g class="cls-30"><rect class="cls-31" x="224.36" y="463" width="132.89" height="103.14" transform="translate(-8.74 5.04) rotate(-0.98)"/></g><g class="cls-24"><rect class="cls-32" x="14.51" y="360.06" width="433.79" height="251.38" transform="translate(-255.09 715.59) rotate(-89.82)"/></g><g class="cls-33"><rect class="cls-34" x="67.97" y="67.53" width="326.85" height="327.72" transform="translate(-95.8 236.79) rotate(-45.94)"/></g><g class="cls-35"><rect class="cls-36" x="383.83" y="222.09" width="249.99" height="432.98"/></g><g class="cls-37"><rect class="cls-38" x="363.03" y="517.67" width="172.79" height="168.52" transform="translate(-232.62 287.09) rotate(-28.47)"/></g><g class="cls-39"><rect class="cls-40" x="477.91" y="413.59" width="37.11" height="172.89"/></g><g class="cls-41"><rect class="cls-42" x="382.98" y="358.19" width="132.88" height="103.14" transform="translate(-6.93 7.73) rotate(-0.98)"/></g><g class="cls-35"><rect class="cls-43" x="291.94" y="312.89" width="433.78" height="251.38" transform="translate(68.62 945.99) rotate(-89.82)"/></g><g class="cls-44"><rect class="cls-45" x="345.4" y="529.08" width="326.85" height="327.71" transform="translate(-342.98 576.78) rotate(-45.94)"/></g><g class="cls-46"><rect class="cls-47" x="42.27" y="991.38" width="158.89" height="7.84"/></g><g class="cls-48"><rect class="cls-49" x="541.87" y="991.38" width="158.9" height="7.84"/></g></g></g></svg>